HIERARCHY
ROOT Hips
{
	OFFSET 0.00000 0.00000 0.00000
	CHANNELS 6 Xposition Yposition Zposition Zrotation Yrotation Xrotation 
	JOINT LHipJoint
	{
		OFFSET 0 0 0
		CHANNELS 3 Zrotation Yrotation Xrotation
		JOINT LeftHip
		{
			OFFSET 1.64549 -1.70879 0.84566
			CHANNELS 3 Zrotation Yrotation Xrotation
			JOINT LeftKnee
			{
				OFFSET 2.24963 -6.18082 0.00000
				CHANNELS 3 Zrotation Yrotation Xrotation
				JOINT LeftAnkle
				{
					OFFSET 2.71775 -7.46697 0.00000
					CHANNELS 3 Zrotation Yrotation Xrotation
					JOINT LeftToe
					{
						OFFSET 0.18768 -0.51564 2.24737
						CHANNELS 3 Zrotation Yrotation Xrotation
						End Site
						{
							OFFSET 0.00000 -0.00000 1.15935
						}
					}
				}
			}
		}
	}
	JOINT RHipJoint
	{
		OFFSET 0 0 0
		CHANNELS 3 Zrotation Yrotation Xrotation
		JOINT RightHip
		{
			OFFSET -1.58830 -1.70879 0.84566
			CHANNELS 3 Zrotation Yrotation Xrotation
			JOINT RightKnee
			{
				OFFSET -2.25006 -6.18201 0.00000
				CHANNELS 3 Zrotation Yrotation Xrotation
				JOINT RightAnkle
				{
					OFFSET -2.72829 -7.49593 0.00000
					CHANNELS 3 Zrotation Yrotation Xrotation
					JOINT RightToe
					{
						OFFSET -0.21541 -0.59185 2.10643
						CHANNELS 3 Zrotation Yrotation Xrotation
						End Site
						{
							OFFSET -0.00000 -0.00000 1.09838
						}
					}
				}
			}
		}
	}
	JOINT lowerback
	{
		OFFSET 0 0 0
		CHANNELS 3 Zrotation Yrotation Xrotation
		JOINT Chest
		{
			OFFSET 0.03142 2.10496 -0.11038
			CHANNELS 3 Zrotation Yrotation Xrotation
			JOINT Chest2
			{
				OFFSET -0.01863 2.10897 -0.06956
				CHANNELS 3 Zrotation Yrotation Xrotation
				JOINT lowerneck
				{
					OFFSET 0 0 0
					CHANNELS 3 Zrotation Yrotation Xrotation
					JOINT Neck
					{
						OFFSET -0.02267 1.73238 0.00451
						CHANNELS 3 Zrotation Yrotation Xrotation
						JOINT Head
						{
							OFFSET -0.05808 1.54724 -0.61749
							CHANNELS 3 Zrotation Yrotation Xrotation
							End Site
							{
								OFFSET -0.01396 1.71468 -0.21082
							}
						}
					}
				}
				JOINT LeftCollar
				{
					OFFSET 0 0 0
					CHANNELS 3 Zrotation Yrotation Xrotation
					JOINT LeftShoulder
					{
						OFFSET 3.44898 0.50298 0.21920
CHANNELS 3 Zrotation Xrotation Yrotation
						JOINT LeftElbow
						{
OFFSET 0 -5.419170 -0.000000
CHANNELS 3 Zrotation Xrotation Yrotation
							JOINT LeftWrist
							{
OFFSET 0 -2.443730 0.000000
CHANNELS 3 Zrotation Xrotation Yrotation
								JOINT lhand
								{
									OFFSET 0 0 0
CHANNELS 3 Zrotation Xrotation Yrotation
									JOINT LFingers
									{
OFFSET 0 -0.727500 0.000000
CHANNELS 3 Zrotation Xrotation Yrotation
										End Site
										{
OFFSET 0 -0.586530 0.000000
										}
									}
								}
								JOINT LThumb
								{
OFFSET 0 0.000000 0.000000
CHANNELS 3 Zrotation Xrotation Yrotation
									End Site
									{
OFFSET 0 -0.595490 0.595490
									}
								}
							}
						}
					}
				}
				JOINT RightCollar
				{
					OFFSET 0 0 0
					CHANNELS 3 Zrotation Yrotation Xrotation
					JOINT RightShoulder
					{
						OFFSET -3.23015 0.55830 0.31051
CHANNELS 3 Zrotation Xrotation Yrotation
						JOINT RightElbow
						{
OFFSET 0 -5.589760 0.000140
CHANNELS 3 Zrotation Xrotation Yrotation
							JOINT RightWrist
							{
OFFSET 0 -2.480600 0.000000
CHANNELS 3 Zrotation Xrotation Yrotation
								JOINT rhand
								{
									OFFSET 0 0 0
CHANNELS 3 Zrotation Xrotation Yrotation
									JOINT RFingers
									{
OFFSET 0 -0.816010 0.000000
CHANNELS 3 Zrotation Xrotation Yrotation
										End Site
										{
OFFSET 0 -0.657890 0.000000
										}
									}
								}
								JOINT RThumb
								{
OFFSET 0 0.000000 0.000000
CHANNELS 3 Zrotation Xrotation Yrotation
									End Site
									{
OFFSET 0 -0.667930 0.667930
									}
								}
							}
						}
					}
				}
			}
		}
	}
}
MOTION
Frames: 7
Frame Time: 0.008333333333333333
0.637000 16.373900 34.531700 -179.127000 6.271800 -157.529000 0.000000 0.000000 0.000000 -26.996200 -5.128800 -42.345200 6.216700 14.635100 45.845300 5.381600 6.477700 -46.310300 0.060800 1.591500 4.378100 0.000000 0.000000 0.000000 16.025500 4.994000 -52.067000 -16.115300 -19.634300 78.574900 0.735600 -17.617700 -16.504600 -0.895000 -6.029700 16.870500 -2.962800 -0.623400 -5.173300 0.339500 -0.312400 -5.810600 1.992100 0.147800 -3.071400 2.126700 -1.150100 -14.411800 -2.147400 2.312700 37.105300 -0.551600 2.224300 15.502600 0.000000 -0.000000 0.000000 15.986000 0.127100 -73.813400 57.871800 -55.715600 32.576400 -22.057700 -33.801200 -16.456800 0.000000 0.000000 0.000000 -7.125000 0.000000 0.000000 -42.881500 42.096800 -3.896600 0.000000 -0.000000 0.000000 -15.469700 9.397300 57.942200 -73.683800 -58.969800 -45.918600 5.230300 -39.021200 -6.083100 0.000000 0.000000 0.000000 7.125000 0.000000 -0.000000 23.141900 23.818800 12.869400
0.634376 16.366027 34.503969 -178.960790 6.352106 -157.452893 0.000000 0.000000 0.000000 -26.772341 -5.414857 -42.255796 6.246530 14.663093 45.963397 5.558133 6.131633 -46.886350 0.087569 1.905200 5.243706 0.000000 0.000000 0.000000 15.662724 5.830213 -52.700699 -15.766521 -19.564317 77.535123 0.640073 -17.424371 -17.557936 -0.935065 -6.159344 17.247623 -2.697563 -0.693996 -5.160003 0.435465 -0.410639 -5.845592 1.940050 0.092863 -3.110153 2.051118 -0.960183 -14.364299 -2.308886 2.588959 36.772967 -0.568134 2.280287 15.339714 0.000000 0.000000 0.000000 15.691545 -0.275654 -74.548925 56.230167 -55.216182 31.224585 -20.897377 -31.922673 -15.788022 0.000000 0.000000 0.000000 -7.125000 0.000000 0.000000 -41.692221 41.708743 -4.237769 0.000000 0.000000 0.000000 -15.385020 9.104682 57.754032 -72.855723 -58.859314 -45.209494 7.303468 -39.129324 -2.899997 0.000000 0.000000 0.000000 7.125000 0.000000 0.000000 25.213756 26.670795 12.350474
0.635199 16.360253 34.481935 -178.787083 6.378592 -157.313821 0.000000 0.000000 0.000000 -26.525694 -5.628429 -42.287825 6.272538 14.687339 46.066052 5.638644 6.000770 -47.158070 0.099720 2.035852 5.604618 0.000000 0.000000 0.000000 15.317638 6.722795 -53.410555 -15.374790 -19.478142 76.362445 0.671675 -17.852971 -18.028247 -1.301949 -7.200855 20.323467 -2.504961 -0.792626 -5.173766 0.569658 -0.552579 -5.783662 1.967081 0.012066 -3.030472 1.935808 -0.742156 -14.591445 -2.399612 2.839508 36.417696 -0.553110 2.312212 15.229973 0.000000 0.000000 0.000000 15.371230 -0.964374 -75.022095 54.562897 -54.673138 29.860177 -20.214313 -30.665475 -15.697772 0.000000 0.000000 0.000000 -7.125000 0.000000 0.000000 -41.160027 41.724710 -4.138108 0.000000 0.000000 0.000000 -15.259938 8.414936 57.574185 -71.494392 -58.663300 -44.045766 7.773728 -39.173284 -2.157535 0.000000 0.000000 0.000000 7.125000 0.000000 0.000000 25.696047 27.332434 12.211211
0.638784 16.356640 34.463974 -178.719518 6.248236 -157.319077 0.000000 0.000000 0.000000 -26.380511 -5.772576 -42.182171 6.291226 14.704714 46.139530 5.660659 6.001385 -47.245401 0.090262 1.935379 5.327158 0.000000 0.000000 0.000000 14.983125 7.417812 -54.070258 -14.960151 -19.378337 75.115682 0.911637 -19.130210 -17.369892 -1.569453 -7.899180 22.411294 -2.412216 -0.943141 -4.921820 0.662347 -0.776681 -5.707167 2.007821 -0.108828 -3.079672 1.889973 -0.537416 -14.827691 -2.465094 3.037747 36.068023 -0.548174 2.335997 15.124677 0.000000 0.000000 0.000000 15.115026 -1.663273 -75.396872 52.845892 -54.074043 28.464944 -20.255323 -29.348914 -15.658579 0.000000 0.000000 0.000000 -7.125000 0.000000 0.000000 -41.167721 41.687474 -4.187026 0.000000 0.000000 0.000000 -15.068604 7.635689 57.455231 -69.800857 -58.396182 -42.601617 6.423487 -38.972136 -4.759620 0.000000 0.000000 0.000000 7.125000 0.000000 0.000000 24.237874 24.993093 12.794518
0.640750 16.351107 34.437432 -178.677553 6.264087 -157.387434 0.000000 0.000000 0.000000 -26.315834 -5.854550 -41.984958 6.301494 14.714245 46.179878 5.721602 5.930247 -47.459766 0.092334 1.957234 5.387640 0.000000 0.000000 0.000000 14.652715 8.095107 -54.674845 -14.511298 -19.259873 73.758609 0.767168 -18.538571 -18.128961 -0.831082 -4.190810 11.898664 -2.366086 -1.043753 -4.720728 0.710572 -0.936166 -5.582953 2.029793 -0.199995 -3.054271 1.869423 -0.346577 -15.132350 -2.505775 3.207095 35.778336 -0.540214 2.356432 15.063675 0.000000 0.000000 0.000000 14.911177 -2.385583 -75.798382 51.076513 -53.412462 27.038425 -20.639423 -27.856104 -15.514699 0.000000 0.000000 0.000000 -7.125000 0.000000 0.000000 -41.358710 41.520368 -4.434835 0.000000 0.000000 0.000000 -14.825502 6.805123 57.281622 -67.872339 -58.060004 -40.962345 6.930835 -39.019858 -4.048354 0.000000 0.000000 0.000000 7.125000 0.000000 0.000000 24.738783 25.623607 12.685441
0.642333 16.343696 34.406744 -178.654975 6.350855 -157.434479 0.000000 0.000000 0.000000 -26.298628 -5.905729 -41.808444 6.304638 14.717176 46.192290 5.776299 5.925118 -47.673164 0.094882 1.983991 5.461589 0.000000 0.000000 0.000000 14.289213 8.780137 -55.237560 -14.028285 -19.120458 72.288975 0.519857 -17.558397 -19.486314 -0.005190 0.095523 -0.262602 -2.344974 -1.100046 -4.586545 0.729731 -1.026003 -5.519084 2.037491 -0.251038 -3.058112 1.885765 -0.194802 -15.328016 -2.547027 3.341110 35.541752 -0.543218 2.378918 15.002566 0.000000 0.000000 0.000000 14.722855 -3.017450 -76.307230 49.247972 -52.678863 25.577249 -21.105290 -26.256645 -15.210702 0.000000 0.000000 0.000000 -7.125000 0.000000 0.000000 -41.516789 41.211784 -4.866548 0.000000 0.000000 0.000000 -14.559533 6.186711 56.983223 -65.921896 -57.686574 -39.310280 8.093049 -39.122165 -2.175628 0.000000 0.000000 0.000000 7.125000 0.000000 0.000000 25.915180 27.301354 12.355708
0.645522 16.340565 34.378721 -178.599604 6.362848 -157.440781 0.000000 0.000000 0.000000 -26.225770 -5.966572 -41.660710 6.298553 14.711551 46.168337 5.785343 6.108551 -47.774075 0.082902 1.857147 5.111087 0.000000 0.000000 0.000000 13.919488 9.479945 -55.725179 -13.528189 -18.962917 70.756527 0.484410 -17.727687 -20.205260 -0.012717 0.301117 -0.827369 -2.290204 -1.153022 -4.399503 0.761884 -1.097994 -5.599681 2.041657 -0.283139 -3.243385 1.952022 -0.083229 -15.234896 -2.629532 3.457661 35.297256 -0.575037 2.412826 14.872243 0.000000 0.000000 0.000000 14.508560 -3.452286 -76.922875 47.392118 -51.880932 24.108559 -21.500277 -24.662426 -14.882672 0.000000 0.000000 0.000000 -7.125000 0.000000 0.000000 -41.610450 40.892509 -5.305211 0.000000 0.000000 0.000000 -14.314939 5.933299 56.607798 -64.075785 -57.297178 -37.753235 7.367245 -38.868290 -3.855823 0.000000 0.000000 0.000000 7.125000 0.000000 0.000000 25.055921 25.795333 12.825979
